<svg xmlns="http://www.w3.org/2000/svg" xmlns:xlink="http://www.w3.org/1999/xlink" width="100%" height="100%">
	<symbol id="icon-back" viewBox="0 0 710 601" xmlns="http://www.w3.org/2000/svg">
		<g transform="translate(0 601) scale(.1 -.1)">
			<path d="m2843 5921c-29-10-72-30-95-46-24-15-624-608-1334-1319-987-987-1296-1303-1317-1342-74-141-74-303 0-432 17-31 475-497 1327-1349 1433-1433 1344-1351 1493-1373 315-44 568 237 488 544-8 32-27 79-42 104-17 31-421 442-1147 1170l-1121 1122 1127 1128c795 796 1132 1140 1148 1171 51 103 64 215 36 321-37 142-153 263-292 305-67 20-205 18-271-4z" />
			<path d="m3455 3430c-77-10-118-25-183-68-141-92-217-264-191-432 27-178 170-327 344-359 76-14 3183-15 3268-1 88 14 161 52 226 118 91 91 131 184 131 309 0 192-118 354-306 420-45 16-163 17-1639 19-874 1-1617-2-1650-6z" />
		</g>
	</symbol>
	<symbol id="icon-next" viewBox="0 0 710 601" xmlns="http://www.w3.org/2000/svg">
		<g transform="translate(0 601) scale(.1 -.1)">
			<path d="m4043 5950c-113-17-233-98-299-201-81-129-84-312-7-447 17-31 421-442 1147-1170l1121-1122-1127-1128c-795-796-1132-1140-1148-1171-34-69-50-131-50-201 0-125 41-227 126-314 88-89 179-126 309-126 89 0 155 17 224 56 29 17 515 495 1342 1323 991 992 1301 1308 1322 1347 74 141 74 303 0 432-17 31-475 497-1327 1349-1433 1433-1344 1351-1493 1373-37 5-72 9-78 9-5-1-33-5-62-9z" />
			<path d="m398 3440c-78-13-154-55-217-118-91-91-131-184-131-309 0-193 123-361 309-420 53-17 152-18 1681-18 1568 0 1627 1 1680 19 206 71 332 275 299 486-27 178-170 327-344 359-69 13-3201 14-3277 1z" />
		</g>
	</symbol>
	<symbol id="icon-checkmark" viewBox="0 0 512 512">
		<g transform="translate(0 512) scale(.1 -.1)">
			<path d="m4435 4464c-16-8-394-378-840-822-1562-1556-1616-1609-1660-1622-91-26-70-44-666 563-298 303-556 560-573 570-41 23-113 22-151-2-57-36-510-452-527-484-21-39-22-87-4-132 18-43 887-956 1409-1482 343-345 395-393 432-402 92-23-17-124 1676 1561 1184 1178 1561 1559 1573 1589 40 100 26 123-257 406-132 134-256 250-273 258-41 19-101 19-139-1z" />
		</g>
	</symbol>
	<symbol id="icon-announcements" viewBox="0 0 737 682" xmlns="http://www.w3.org/2000/svg">
		<g transform="translate(0 682) scale(.1 -.1)">
			<path d="m380 6592c-25-16-58-43-73-61l-27-33v-2728-2728l29-90c57-174 168-354 277-451 145-128 264-194 444-243 74-20 95-20 2260-25 1202-2 2376 0 2610 5l425 8 95 33c155 53 267 121 379 231 142 139 213 252 272 432l29 90v2039 2039l-36 39c-19 22-54 49-78 60-42 21-55 21-818 21h-776l-4 618c-4 680-2 660-67 715-17 14-48 32-69 39-29 10-544 13-2432 16l-2395 3-45-29zm4610-2947v-2575l31-95c40-125 78-211 129-285l41-60h-2020-2019l-73 31c-83 35-190 102-233 145s-110 150-145 233l-31 73v2554 2554h2160 2160v-2575zm1719-537c0-948-4-1795-7-1884l-7-161-44-89c-60-121-162-224-283-283-104-52-171-62-368-54-119 5-157 10-210 30-174 65-286 177-369 372l-31 73v1859 1859h660 660l-1-1722z" />
			<path d="m1479 5651c-204-6-206-6-248-34-128-85-116-265 23-340l41-22h1495c822 0 1526 4 1563 8 56 7 75 15 104 40 115 101 88 272-52 333-37 16-133 18-1380 19-737 1-1433-1-1546-4z" />
			<path d="m1477 4793-217-3-49-48c-48-47-71-95-71-152 1-44 36-104 86-149l48-42 3111 6 42 22c92 50 127 168 78 263-8 15-35 46-61 69l-47 41-1351-2c-743-2-1449-4-1569-5z" />
			<path d="m2815 3931c-87-9-127-38-162-116-17-37-18-95-21-817l-3-776 25-50c14-28 42-64 63-81l38-31h833 833l49 50 50 49v831 832l-21 30c-12 16-40 43-62 59l-40 29-761-2c-419 0-788-4-821-7zm1315-936v-545h-545-545v545 545h545 545v-545z" />
			<path d="m1325 3613c-54-3-76-9-101-28-38-29-84-117-84-160 0-75 48-148 124-187 37-19 55-20 400-16 337 3 364 4 400 23 56 28 94 81 108 147 11 53 10 58-18 114-23 46-39 64-74 84l-45 25-320 1c-176 0-351-1-390-3z" />
			<path d="m1239 2735c-71-44-89-79-89-173 0-61 3-74 31-111 53-75 55-75 479-75l375-1 45 25c35 20 51 38 74 84 28 56 29 61 18 114-14 66-52 119-108 147-36 19-62 20-404 23l-365 3-56-36z" />
			<path d="m1477 1583-217-3-49-48c-48-47-71-95-71-152 1-41 34-103 78-142l42-38h1573 1573l41 30c111 82 104 257-14 331l-38 24h-1350c-742 1-1448 0-1568-2z" />
		</g>
	</symbol>
	<symbol id="icon-arrow" viewBox="0 0 326 360">
		<g transform="translate(0 360) scale(.1 -.1)">
			<path d="m925 3542c-111-55-168-143-168-263 0-134-22-108 703-834l650-650-640-640c-353-352-654-660-669-685-40-62-55-141-40-211 38-185 217-283 396-218 55 20 95 58 834 798 621 620 781 786 800 826 19 39 24 67 24 125 0 146 52 85-808 947-560 561-784 779-821 799-39 21-67 28-126 31-67 4-81 1-135-25z"/>
		</g>
	</symbol>
	<symbol id="icon-refresh" viewBox="0 0 717 627">
		<g transform="translate(0 627) scale(.1 -.1)">
			<path d="m1795 5607c-77-30-128-77-171-157-29-56-25-171 8-235 33-63 79-108 143-137l50-23 1783-3 1782-2v-1217-1217l-347 346c-322 320-352 347-406 367-68 25-128 27-188 6-101-36-169-112-190-213-14-71 1-148 42-212 36-57 1193-1213 1234-1233 84-41 191-40 272 2 22 11 299 281 635 618 655 657 648 647 648 764 0 112-52 199-151 254-46 26-65 30-129 30-120 0-129-7-512-391l-338-339v1376c0 1524 4 1432-66 1523-26 34-54 56-98 77l-61 29-1955-1c-1471 0-1963-3-1985-12z"/>
			<path d="m1465 4483c-104-25-72 3-713-636-371-370-622-628-634-652-26-49-35-150-18-208 19-68 77-137 144-171 47-25 70-30 124-30 121 1 128 6 510 387l342 342v-1383c0-1331 1-1384 19-1432 28-74 73-125 143-159l61-31h1951c1611 1 1958 3 1989 14 60 22 105 57 142 111 100 148 45 341-120 417l-50 23-1782 3-1783 2v1217 1217l343-341c384-384 388-387 513-387 54 1 82 6 115 23 100 51 160 145 162 250 1 83-18 134-72 198-27 32-303 311-613 620-434 433-574 567-609 582-46 20-130 33-164 24z"/>
		</g>
	</symbol>
	<symbol id="icon-location" viewBox="0 0 442 474">
		<g transform="translate(0 474) scale(.1 -.1)">
			<path d="m2026 4589c-727-84-1307-716-1308-1424 0-158 22-277 92-487 179-539 706-1512 1341-2476l54-82 17 22c71 92 507 793 680 1093 459 796 713 1361 784 1740 21 112 14 316-15 452-121 560-546 991-1116 1132-157 38-359 50-529 30zm360-695c285-74 505-308 570-607 23-103 21-282-5-378-76-293-287-509-571-586-99-27-274-24-370 6-142 44-251 112-350 218-137 147-206 313-217 528-21 405 250 757 640 831 82 15 219 10 303-12z"/>
		</g>
	</symbol>
	<symbol id="icon-species" viewBox="0 0 960 881">
		<g transform="translate(0 881) scale(.1 -.1)">
			<path d="m3163 8769c-219-28-400-125-572-304-221-232-353-529-407-920-22-163-15-481 14-645 121-671 504-1171 1018-1326 78-24 107-27 234-28 166-1 231 12 367 75 376 172 648 604 718 1140 19 144 22 404 5 534-81 643-411 1169-873 1391-105 50-176 70-297 84-95 11-118 11-207-1zm257-640c200-94 396-382 474-694 37-148 47-232 47-391 0-270-58-496-171-667-101-154-201-222-326-222-61 0-80 5-147 38-89 44-208 154-274 252-94 140-176 337-213 513-27 126-37 374-21 506 43 341 209 625 401 687 51 17 172 5 230-22z" />
			<path d="m6165 8759c-423-103-771-445-966-949-87-226-128-436-136-705-8-281 28-524 114-755 151-407 421-685 758-782 113-32 342-32 459 0 335 93 628 356 825 741 151 295 225 612 224 961-2 483-150 905-416 1186-135 143-262 226-427 279-75 25-103 28-240 31-85 2-173-1-195-7zm266-614c136-48 276-235 342-455 35-118 46-178 56-310 30-417-113-839-368-1083-103-98-180-138-277-145-92-6-154 21-245 106-108 101-195 274-241 482-20 90-23 132-23 300 0 145 5 217 18 282 56 281 156 489 317 661 141 151 290 208 421 162z" />
			<path d="m944 6196c-450-73-764-387-877-875-19-83-22-125-22-311 0-184 3-231 23-326 130-642 586-1194 1132-1369 168-54 309-71 462-55 467 47 809 366 924 860 32 133 43 383 25 522-40 295-144 578-303 820-245 373-618 644-993 722-105 22-277 27-371 12zm226-607c206-33 453-205 598-416 227-333 301-708 197-1007-119-342-473-399-835-132-222 163-416 494-470 802-16 91-8 317 14 399 62 225 202 348 416 364 8 0 44-4 80-10z" />
			<path d="m8430 6204c-644-59-1246-655-1403-1389-43-197-48-500-13-665 84-388 307-677 633-818 226-98 520-102 782-10 532 187 959 694 1100 1308 65 286 53 598-33 845-112 323-324 551-616 664-123 48-322 76-450 65zm227-634c137-48 229-160 278-338 23-81 31-293 15-389-42-265-187-543-379-724-198-189-415-281-587-252-182 31-303 152-360 358-22 80-30 308-14 400 31 176 125 399 230 547 190 267 481 441 705 421 33-3 83-13 112-23z" />
			<path d="m4630 5414c-388-46-711-199-994-473-172-167-266-308-391-586-241-537-561-1007-928-1364-188-183-291-320-386-516-167-344-212-721-129-1104 90-422 351-799 722-1043 289-191 594-288 951-305 160-7 338 13 547 62 296 70 501 95 768 95 298 0 490-24 805-99 205-49 305-62 473-62 282 0 506 45 742 149 229 100 384 206 561 382 276 275 434 605 480 999 14 128 7 373-15 491-63 344-227 654-472 890-190 183-266 263-370 394-227 283-457 657-604 986-115 254-181 368-300 515-180 221-469 417-757 513-164 55-278 73-483 77-102 2-201 1-220-1zm442-638c185-47 350-142 491-282 92-91 160-193 224-334 303-671 677-1223 1082-1599 176-164 279-320 335-505 53-174 59-401 17-573-120-486-555-828-1082-850-155-7-250 4-414 47-298 78-565 110-915 110-334 0-575-27-875-99-211-51-324-65-455-56-188 12-357 60-518 146-282 150-474 384-552 674-68 248-46 502 64 740 60 129 124 214 276 365 244 241 419 454 612 746 171 257 282 458 443 805 44 96 105 210 135 253 58 84 179 203 262 258 127 85 306 157 443 178 106 16 318 5 427-24z" />
			<path d="m5427 4040c-212-83-267-350-105-507 18-18 59-44 91-59 173-78 387 38 415 227 34 234-188 423-401 339z" />
			<path d="m5775 3407c-83-33-137-81-177-157-27-53-37-169-18-225 15-45 136-229 257-390 136-182 258-327 386-461 137-143 179-167 292-167 179-1 312 139 303 318-5 98-29 138-170 290-151 163-301 349-425 530-121 176-171 229-241 255-59 22-159 26-207 7z" />
		</g>
	</symbol>
	<symbol id="icon-expositions" viewBox="0 0 733 619">
		<g transform="translate(0 619) scale(.1 -.1)">
			<path d="m1945 6151c-90-16-154-76-179-168-25-90-73-178-132-237-66-68-116-97-224-131-95-30-141-65-171-130-15-33-19-65-19-172v-133h-87c-47 0-116-5-152-11-165-28-307-144-377-309-18-44-19-105-24-2235l-5-2190-210-5c-207-5-211-5-248-32-117-80-130-239-27-332 21-19 57-40 78-46 28-7 1093-9 3518-8l3479 3 43 29c141 95 123 306-30 371-29 12-79 15-233 15h-195v2153c0 2369 4 2216-62 2339-37 70-137 167-210 204-68 35-165 54-274 54h-91l-5 138c-4 129-6 142-32 186-32 55-80 88-161 111-85 24-150 60-208 113-72 68-103 119-138 224-36 110-62 148-126 179l-48 24-1705 1c-938 1-1723-1-1745-5zm3274-468c80-167 241-330 404-409l57-28v-281l-1-280-49-23c-160-75-326-240-406-404l-28-58h-1536-1536l-12 34c-19 52-102 173-167 244s-151 135-242 181l-63 31v278 277l70 34c138 67 278 202 366 351 24 41 44 81 44 88 0 9 314 12 1538 12h1538l23-47zm-3999-1065c0-113 3-138 21-175 30-62 77-96 170-123 92-26 176-77 234-141 58-63 81-104 111-199 33-106 62-146 128-176l51-24h1730c1652 0 1732 1 1770 19 63 28 101 80 130 176 57 186 169 293 371 353 58 18 79 30 111 65 50 54 63 107 63 252v105h88c48 0 92-4 98-8 33-22 34-42 34-1201v-1151h-820c-648 0-821 3-824 13-22 91-80 236-120 305-60 101-190 242-294 319-89 66-231 136-337 165-70 19-104 22-275 22-182 0-201-2-281-27-119-36-186-67-282-130-218-143-374-352-439-584l-23-83h-817-818v1162c0 1067 1 1163 17 1180 13 15 32 18 110 18h93v-132zm2637-1846c149-52 287-168 356-298 20-40 37-75 37-78s-266-6-591-6h-590l37 73c76 147 239 277 404 322 81 22 265 15 347-13zm-2267-1577v-765h-295-295v765 765h295 295v-765zm1020 0v-765h-295-295v765 765h295 295v-765zm1680 0v-765l-207 2-208 3-5 345c-6 382-5 377-74 438-83 73-201 68-280-11-63-64-66-81-66-451v-326h-205-205v765 765h625 625v-765zm1018 3-3-763-297-3-298-2v765 765h300 300l-2-762zm1020 0-3-763-297-3-298-2v765 765h300 300l-2-762z" />
			<path d="m2230 5461c-76-15-120-70-120-147 0-64 28-109 83-134 34-16 65-20 172-20h130l-379-379-3-58c-5-71 17-112 76-143 38-19 58-20 374-20 330 0 334 0 367 23 75 51 98 123 61 196-37 72-63 81-231 81h-144l191 193c160 160 193 198 198 229 14 75-18 137-89 169-37 17-69 18-346 18-168-1-321-4-340-8z" />
			<path d="m3516 5440c-73-26-127-63-188-127-240-258-90-685 262-745 196-34 396 74 482 259 44 92 51 217 19 322-28 91-95 181-178 237-80 55-116 65-238 70-83 4-110 1-159-16zm222-300c117-71 85-250-50-275-76-14-159 44-174 121-9 51 21 122 65 151s113 31 159 3z" />
			<path d="m4638 5446c-160-46-297-205-316-366-17-148 24-275 123-379 256-269 706-126 767 244 32 191-70 384-250 472-70 35-82 38-176 40-62 1-119-3-148-11zm215-312c15-10 36-38 48-61 29-60 19-115-30-165-47-47-95-57-157-33-115 44-128 199-22 266 41 25 121 22 161-7z" />
			<path d="m3580 1829c-48-19-93-62-116-113-41-87-28-171 38-242 76-83 190-95 285-31 141 96 119 315-39 381-42 18-130 20-168 5z" />
		</g>
	</symbol>
	<symbol id="icon-facilities" viewBox="0 0 729 786" xmlns="http://www.w3.org/2000/svg">
		<g transform="translate(0 786) scale(.1 -.1)">
			<path d="m3585 7483c-159-83-1415-791-1432-806-12-11-27-35-33-53-14-41 0-91 33-121 12-12 345-202 740-423 687-385 720-402 760-397 31 3 177 80 557 294 283 159 600 336 703 393 238 133 248 141 254 205 7 86 6 88-408 319-1190 667-1106 625-1174 589z" />
			<path d="m805 5912c-585-328-734-415-753-442l-22-33v-1537c0-1149 3-1546 12-1571 19-56 46-84 126-131 286-168 1319-739 1352-748 53-14 90-6 167 36l63 35v1532 1532l638 355c350 195 652 369 670 387 26 25 32 39 32 73 0 23-7 55-17 70-12 22-191 126-742 435-464 261-738 409-761 412-31 3-118-43-765-405zm91-1065 469-263 3-1308c2-1071 0-1307-11-1303-7 3-222 122-477 265l-465 261-3 1305c-1 738 2 1306 7 1306 4 0 219-118 477-263z" />
			<path d="m5684 6307c-18-7-351-191-741-410-541-304-713-405-726-427-27-44-22-104 11-139 15-17 301-184 662-386 349-196 636-359 638-363 1-4 3-693 5-1532l2-1524 60-35c49-29 72-36 125-39l65-3 660 371c805 452 758 424 787 474l23 41 3 1535c2 1078 0 1546-8 1572-13 45-36 62-255 183-88 49-403 225-699 392-297 167-549 303-560 302-12 0-35-5-52-12zm1196-2501v-1304l-475-266c-261-146-477-266-480-266s-4 588-3 1307l3 1307 465 262c256 144 471 262 478 263 9 1 12-266 12-1303z" />
			<path d="m3570 5117c-175-94-1381-774-1407-794-20-14-36-38-43-61-15-54-14-3013 1-3083 8-37 22-63 48-90 25-26 243-153 696-407 363-203 674-376 690-385 49-25 97-30 141-14 57 19 1383 764 1417 796 67 61 62-77 62 1638 0 1538 0 1552-20 1578-22 29-30 34-895 520-411 231-576 319-605 322s-52-2-85-20zm-550-1465 425-239 3-1311 2-1310-475 266-475 267v1308 1307l48-24c26-14 238-133 472-264zm1768-1019-3-1308-468-262c-258-145-473-263-478-263s-9 534-9 1303v1303l323 181c177 100 390 219 472 266 83 47 153 86 158 86 4 1 6-587 5-1306z" />
		</g>
	</symbol>
	<symbol id="icon-events" viewBox="0 0 871 742">
		<g transform="translate(0 742) scale(.1 -.1)">
			<path d="m1533 7396c-67-21-108-52-135-103-28-52-48-139-48-212 0-25-3-63-6-83l-7-38h-116c-160 0-429-18-527-35-239-41-484-209-579-397-18-38-42-103-52-145-17-74-18-202-17-2803 1-2951 2-3019 50-3117 31-64 175-214 259-270 81-54 166-96 250-123 70-23 72-23 1005-31 1207-10 4842-10 5740 0 683 8 696 9 765 31 153 49 300 142 401 253 70 78 99 126 119 202 26 94 34 939 35 3415 0 2189-3 2393-35 2505-57 198-299 404-555 470-73 19-245 33-502 41-115 3-208 9-208 13-10 176-22 277-36 306-41 86-156 143-266 131-84-8-143-42-188-106-23-33-25-44-28-187l-4-153h-258-257l-7 123c-9 160-17 192-58 234-121 127-334 120-426-14-26-36-27-44-30-190l-4-153h-1442-1443l-6 123c-7 147-25 211-70 255-79 77-240 94-335 36-86-54-108-107-123-293-4-64-9-117-9-118 0-2-110-3-243-3h-244l-12 133c-16 177-22 198-77 246-75 66-174 87-271 57zm851-928c3-35 8-97 11-138 9-107 21-146 61-190 89-98 293-101 389-6 53 54 65 95 72 254l6 133 1421-3c782-2 1428-7 1437-11 12-6 18-30 23-100 9-120 25-215 43-250 32-63 151-111 242-96 64 10 146 48 188 87 31 30 31 31 42 178 7 82 14 159 17 172l4 22h245 245l4-22c3-13 8-70 11-128 11-191 30-233 121-280 71-36 186-35 265 1 101 47 123 101 136 326l6 113h91c90 0 398-24 466-36 80-15 157-70 193-139 18-36 21-65 28-290 4-137 8-305 8-372l1-123h-3800-3800v384 384l67 62c102 96 113 99 385 110 128 5 254 10 280 10h47l5-52c33-316 35-321 166-389 88-45 211-21 293 59 62 59 67 77 74 242l6 150h248 247l6-62zm5776-1740c-1-222-5-1229-10-2240-10-2040-2-1862-79-1931-22-20-59-46-83-58-42-22-57-23-433-30-493-9-5704-11-6329-2l-467 6-62 41c-65 43-99 85-118 145-12 38-22 993-32 3319l-6 1152h3810 3809v-402z" />
			<path d="m4045 4531c-120-20-301-81-465-159-232-110-513-348-671-567-157-217-279-530-309-790-15-134-13-416 4-505 57-295 159-546 303-750 90-126 331-367 444-442 200-133 420-225 669-280 93-20 133-22 340-23 207 0 248 3 344 23 464 98 834 344 1118 743 128 180 232 427 279 664 21 105 24 146 23 335-1 193-4 228-28 345-63 303-170 528-373 780-236 294-619 530-993 611-85 18-596 29-685 15zm574-451c83-14 163-42 290-101 139-65 253-143 361-246 191-181 306-378 372-633 26-98 31-140 35-286 6-186-7-280-63-452-106-325-344-603-652-760-204-105-362-142-602-142-172 0-283 17-427 65-183 61-320 141-464 272-150 136-248 276-331 471-88 207-119 394-99 603 32 343 133 568 366 817 187 200 369 307 650 383 109 29 112 30 305 24 107-3 224-10 259-15z" />
			<path d="m4955 3431c-41-18-344-299-635-587l-155-153-150 141c-211 198-255 231-321 236-102 8-199-60-230-164-19-64-17-111 7-164 26-58 544-577 609-610 67-34 144-25 207 24 97 75 403 369 684 655l289 294v89c0 107-14 144-74 192-80 64-159 80-231 47z" />
		</g>
	</symbol>
	<symbol id="icon-life" viewBox="0 0 249 221">
		<g transform="translate(0 221) scale(.1 -.1)">
			<path d="m552 2110c-92-24-146-48-219-98-185-126-292-343-280-568 10-175 73-294 280-529 243-276 883-873 917-855 38 21 475 424 660 610 291 291 430 463 480 596 34 91 45 193 31 291-37 260-201 458-448 539-77 26-102 29-208 29-132 0-196-14-299-67-71-35-160-104-198-151l-26-34-74 72c-84 80-196 142-309 169-87 21-216 20-307-4zm322-243c99-46 143-85 256-234l108-143 117 150c150 195 225 245 380 257 260 20 485-202 461-455-8-88-39-150-137-272-167-209-774-800-820-800-24 0-297 247-529 480-188 189-313 333-372 431-139 229-9 527 263 604 80 22 202 14 273-18z"/>
		</g>
	</symbol>
	<symbol id="icon-size" viewBox="0 0 236 237">
		<g transform="translate(0 237) scale(.1 -.1)">
			<path d="m1755 2217c-16-7-40-18-53-25-18-11-672-576-1519-1315-125-108-153-156-153-258 0-54 5-77 27-118 31-56 219-278 269-316 78-59 192-69 277-24 53 28 1603 1372 1643 1424 59 77 71 184 30 270-13 28-77 111-143 185-142 162-184 190-283 189-36 0-78-6-95-12zm118-166c32-12 243-254 249-285 3-13-1-37-7-53-10-23-934-836-1563-1375-41-35-86-37-124-5-39 33-198 218-215 250-25 49-9 81 75 152l77 65 57-62 57-63 31 30 30 31-50 56c-27 31-50 60-50 66 0 5 23 28 51 52l50 42 37-43c20-24 44-52 53-63 16-20 16-20 47 5 17 13 31 28 31 32 1 5-22 35-51 68l-52 60 50 44c27 24 52 44 56 45 4 0 44-43 89-95l82-96 31 28c17 16 32 28 33 29 2 0-35 44-81 98l-85 98 50 44c27 24 53 44 57 44 5 0 30-27 58-60 27-33 52-60 55-60s18 13 34 30l28 30-53 61-54 62 53 47 54 48 51-59c28-32 56-58 61-57 6 0 22 11 37 23l27 23-55 63-55 64 106 94 55-62c30-34 69-77 87-97l32-35 31 30 30 30-81 93c-44 51-79 96-77 100s24 27 51 51l48 44 37-43c20-24 43-52 50-62 17-24 25-23 61 8l31 26-55 61c-30 34-55 64-54 67 0 3 24 24 52 48l52 43 114-126 30 30 31 30-50 58c-28 32-50 62-50 67 0 9 116 111 145 128 25 14 37 15 68 3z"/>
		</g>
 	</symbol>
	<symbol id="icon-exclamation" viewBox="0 0 45 193" >
		<g transform="translate(0 193) scale(.1 -.1)">
			<path d="m147 1885c-22-7-49-23-62-35-45-43-49-67-36-248 37-514 100-958 147-1030 15-22 17-23 34-7 46 42 102 387 145 903 21 261 20 318-7 359-26 37-100 73-150 73-18-1-50-7-71-15z"/>
			<path d="m130 349c-59-34-85-82-85-155 0-55 4-67 30-100 60-74 140-93 222-53 124 60 124 254 0 313-48 22-124 20-167-5z"/>
		</g>
	</symbol>
	<symbol id="icon-grid" viewBox="0 0 686 688">
		<g transform="translate(0 688) scale(.1 -.1)">
			<path d="m349 6850c-154-20-294-143-334-295-22-87-22-972 0-1060 33-123 108-215 223-272l57-28h535c531 0 535 0 590 22 85 35 162 109 207 201l38 76 3 488c2 294-1 510-7 542-32 171-170 301-346 326-79 11-880 11-966 0z" />
			<path d="m2932 6850c-129-19-265-127-314-247-23-58-23-61-26-553-2-310 1-512 7-542 26-119 109-226 219-280l67-33 517-3c502-2 519-2 579 18 117 40 204 122 251 237l23 58v515 515l-23 58c-44 109-127 190-243 239-53 22-61 22-529 24-261 1-499-1-528-6z" />
			<path d="m5521 6850c-134-20-247-107-310-240l-26-55v-535-535l32-66c39-80 120-159 200-197l58-27h535 535l68 32c120 57 202 164 226 297 14 77 15 897 1 986-28 172-154 302-328 339-61 13-903 13-991 1z" />
			<path d="m349 4261c-155-21-294-144-334-296-12-49-15-137-15-527 0-495 3-534 48-623 36-71 125-155 198-185l59-25 509-3c444-2 516-1 565 13 113 33 200 109 255 224l31 66 3 498c2 428 1 507-13 560-35 138-129 238-266 283-48 16-104 18-519 20-256 1-490-1-521-5z" />
			<path d="m2932 4260c-128-19-265-127-314-247l-23-58v-520c0-486 1-523 19-571 43-115 142-210 255-244 64-20 88-21 576-18l510 3 67 32c112 53 191 148 222 268 13 49 16 135 16 516 0 265-4 479-10 509-34 177-171 308-346 331-84 10-898 10-972-1z" />
			<path d="m5521 4260c-134-20-247-107-310-240l-26-55v-530-530l24-60c33-83 133-183 216-216l60-24h530 530l68 33c120 59 202 167 226 296 13 73 15 893 2 983-25 173-157 311-325 342-69 13-909 13-995 1z" />
			<path d="m323 1670c-102-21-213-101-268-194-52-89-55-122-55-631 0-521 2-542 63-644 37-62 108-122 187-160l55-26 495-3c357-3 510 0 550 8 147 32 255 132 300 278 19 60 20 94 20 541 0 518-3 547-57 640-55 94-158 166-271 190-62 13-953 14-1019 1z" />
			<path d="m2910 1669c-117-23-230-114-284-228l-31-66v-531-530l38-76c44-91 102-146 197-192l65-31h530 530l66 32c121 60 205 168 229 292 13 71 13 931 0 1002-25 132-112 243-238 302l-67 32-495 2c-272 1-515-3-540-8z" />
			<path d="m5502 1669c-122-24-230-110-285-227l-32-67-3-512c-3-497-2-513 18-574 39-115 106-189 220-243l65-31 490-3c340-2 508 0 550 8 160 31 288 167 315 336 13 76 13 901 0 977-26 162-143 290-304 333-40 11-152 14-521 13-258-1-489-5-513-10z" />
		</g>
	</symbol>
	<symbol id="icon-list" viewBox="0 0 691 641">
		<g transform="translate(0 641) scale(.1 -.1)">
			<path d="m300 6384c-114-31-211-113-264-224l-31-65v-301-300l37-76c45-91 103-147 196-191l67-32h3145 3145l70 34c89 44 157 113 198 199l32 67v295c0 329-1 335-72 438-41 60-105 111-183 144l-55 23-3115 2c-2719 2-3122 0-3170-13z" />
			<path d="m300 3794c-119-32-208-107-264-224l-31-65v-300-300l32-67c57-121 163-204 288-227 41-8 958-11 3135-11 3397 0 3135-5 3249 63 68 41 115 95 155 177l31 65 3 260c4 280-3 346-43 426-29 57-97 128-156 162-104 61 132 57-3254 56-2687 0-3097-2-3145-15z" />
			<path d="m306 1209c-62-15-153-68-197-116-22-24-55-74-72-111l-32-67-3-274c-3-253-2-278 18-342 27-89 96-180 170-225 114-70-155-64 3286-62l3109 3 77 37c94 45 155 104 200 196l33 66 3 266c4 285-2 338-45 424-35 70-112 142-191 179l-67 32-3125 2c-1862 0-3141-3-3164-8z" />
		</g>
	</symbol>
	<symbol id="icon-search" viewBox="0 0 343 341">
		<g transform="translate(0 341) scale(.1 -.1)">
			<path d="m1305 3370c-368-38-723-230-950-513-206-257-308-551-308-887 1-268 67-510 201-735 276-463 782-737 1317-712 234 10 473 82 671 203l76 46 357-355c196-195 372-363 391-373 24-13 57-19 106-19 61 0 77 4 120 30 96 60 138 179 99 283-15 39-76 105-377 408l-360 362 57 96c169 283 234 659 170 986-100 509-458 923-960 1108-164 60-427 91-610 72zm395-499c41-12 125-46 185-76 285-141 483-413 531-730 19-124 17-210-6-323-75-369-336-640-700-727-419-100-875 114-1079 505-81 157-113 286-113 460 1 309 146 586 398 760 86 59 228 122 329 144 104 23 354 16 455-13z"/>
		</g>
	</symbol>
	<symbol id="icon-back" viewBox="0 0 710 601">
		<g transform="translate(0 601) scale(.1 -.1)">
			<path d="m2843 5921c-29-10-72-30-95-46-24-15-624-608-1334-1319-987-987-1296-1303-1317-1342-74-141-74-303 0-432 17-31 475-497 1327-1349 1433-1433 1344-1351 1493-1373 315-44 568 237 488 544-8 32-27 79-42 104-17 31-421 442-1147 1170l-1121 1122 1127 1128c795 796 1132 1140 1148 1171 51 103 64 215 36 321-37 142-153 263-292 305-67 20-205 18-271-4z" />
			<path d="m3455 3430c-77-10-118-25-183-68-141-92-217-264-191-432 27-178 170-327 344-359 76-14 3183-15 3268-1 88 14 161 52 226 118 91 91 131 184 131 309 0 192-118 354-306 420-45 16-163 17-1639 19-874 1-1617-2-1650-6z" />
		</g>
	</symbol>
</svg>
