<svg xmlns="http://www.w3.org/2000/svg" xmlns:xlink="http://www.w3.org/1999/xlink" width="100%" height="100%">
	<symbol id="icon-back" viewBox="0 0 710 601" xmlns="http://www.w3.org/2000/svg">
		<g transform="translate(0 601) scale(.1 -.1)">
			<path d="m2843 5921c-29-10-72-30-95-46-24-15-624-608-1334-1319-987-987-1296-1303-1317-1342-74-141-74-303 0-432 17-31 475-497 1327-1349 1433-1433 1344-1351 1493-1373 315-44 568 237 488 544-8 32-27 79-42 104-17 31-421 442-1147 1170l-1121 1122 1127 1128c795 796 1132 1140 1148 1171 51 103 64 215 36 321-37 142-153 263-292 305-67 20-205 18-271-4z" />
			<path d="m3455 3430c-77-10-118-25-183-68-141-92-217-264-191-432 27-178 170-327 344-359 76-14 3183-15 3268-1 88 14 161 52 226 118 91 91 131 184 131 309 0 192-118 354-306 420-45 16-163 17-1639 19-874 1-1617-2-1650-6z" />
		</g>
	</symbol>
	<symbol id="icon-next" viewBox="0 0 710 601" xmlns="http://www.w3.org/2000/svg">
		<g transform="translate(0 601) scale(.1 -.1)">
			<path d="m4043 5950c-113-17-233-98-299-201-81-129-84-312-7-447 17-31 421-442 1147-1170l1121-1122-1127-1128c-795-796-1132-1140-1148-1171-34-69-50-131-50-201 0-125 41-227 126-314 88-89 179-126 309-126 89 0 155 17 224 56 29 17 515 495 1342 1323 991 992 1301 1308 1322 1347 74 141 74 303 0 432-17 31-475 497-1327 1349-1433 1433-1344 1351-1493 1373-37 5-72 9-78 9-5-1-33-5-62-9z" />
			<path d="m398 3440c-78-13-154-55-217-118-91-91-131-184-131-309 0-193 123-361 309-420 53-17 152-18 1681-18 1568 0 1627 1 1680 19 206 71 332 275 299 486-27 178-170 327-344 359-69 13-3201 14-3277 1z" />
		</g>
	</symbol>
	<symbol id="icon-checkmark" viewBox="0 0 512 512">
		<g transform="translate(0 512) scale(.1 -.1)">
			<path d="m4435 4464c-16-8-394-378-840-822-1562-1556-1616-1609-1660-1622-91-26-70-44-666 563-298 303-556 560-573 570-41 23-113 22-151-2-57-36-510-452-527-484-21-39-22-87-4-132 18-43 887-956 1409-1482 343-345 395-393 432-402 92-23-17-124 1676 1561 1184 1178 1561 1559 1573 1589 40 100 26 123-257 406-132 134-256 250-273 258-41 19-101 19-139-1z" />
		</g>
	</symbol>
</svg>
