<svg xmlns="http://www.w3.org/2000/svg" xmlns:xlink="http://www.w3.org/1999/xlink" width="100%" height="100%">
	<symbol id="icon-back" viewBox="0 0 710 601" xmlns="http://www.w3.org/2000/svg">
		<g transform="translate(0 601) scale(.1 -.1)">
			<path d="m2843 5921c-29-10-72-30-95-46-24-15-624-608-1334-1319-987-987-1296-1303-1317-1342-74-141-74-303 0-432 17-31 475-497 1327-1349 1433-1433 1344-1351 1493-1373 315-44 568 237 488 544-8 32-27 79-42 104-17 31-421 442-1147 1170l-1121 1122 1127 1128c795 796 1132 1140 1148 1171 51 103 64 215 36 321-37 142-153 263-292 305-67 20-205 18-271-4z" />
			<path d="m3455 3430c-77-10-118-25-183-68-141-92-217-264-191-432 27-178 170-327 344-359 76-14 3183-15 3268-1 88 14 161 52 226 118 91 91 131 184 131 309 0 192-118 354-306 420-45 16-163 17-1639 19-874 1-1617-2-1650-6z" />
		</g>
	</symbol>
	<symbol id="icon-next" viewBox="0 0 710 601" xmlns="http://www.w3.org/2000/svg">
		<g transform="translate(0 601) scale(.1 -.1)">
			<path d="m4043 5950c-113-17-233-98-299-201-81-129-84-312-7-447 17-31 421-442 1147-1170l1121-1122-1127-1128c-795-796-1132-1140-1148-1171-34-69-50-131-50-201 0-125 41-227 126-314 88-89 179-126 309-126 89 0 155 17 224 56 29 17 515 495 1342 1323 991 992 1301 1308 1322 1347 74 141 74 303 0 432-17 31-475 497-1327 1349-1433 1433-1344 1351-1493 1373-37 5-72 9-78 9-5-1-33-5-62-9z" />
			<path d="m398 3440c-78-13-154-55-217-118-91-91-131-184-131-309 0-193 123-361 309-420 53-17 152-18 1681-18 1568 0 1627 1 1680 19 206 71 332 275 299 486-27 178-170 327-344 359-69 13-3201 14-3277 1z" />
		</g>
	</symbol>
	<symbol id="icon-checkmark" viewBox="0 0 512 512">
		<g transform="translate(0 512) scale(.1 -.1)">
			<path d="m4435 4464c-16-8-394-378-840-822-1562-1556-1616-1609-1660-1622-91-26-70-44-666 563-298 303-556 560-573 570-41 23-113 22-151-2-57-36-510-452-527-484-21-39-22-87-4-132 18-43 887-956 1409-1482 343-345 395-393 432-402 92-23-17-124 1676 1561 1184 1178 1561 1559 1573 1589 40 100 26 123-257 406-132 134-256 250-273 258-41 19-101 19-139-1z" />
		</g>
	</symbol>
	<symbol id="icon-announcements" viewBox="0 0 737 682" xmlns="http://www.w3.org/2000/svg">
		<g transform="translate(0 682) scale(.1 -.1)">
			<path d="m380 6592c-25-16-58-43-73-61l-27-33v-2728-2728l29-90c57-174 168-354 277-451 145-128 264-194 444-243 74-20 95-20 2260-25 1202-2 2376 0 2610 5l425 8 95 33c155 53 267 121 379 231 142 139 213 252 272 432l29 90v2039 2039l-36 39c-19 22-54 49-78 60-42 21-55 21-818 21h-776l-4 618c-4 680-2 660-67 715-17 14-48 32-69 39-29 10-544 13-2432 16l-2395 3-45-29zm4610-2947v-2575l31-95c40-125 78-211 129-285l41-60h-2020-2019l-73 31c-83 35-190 102-233 145s-110 150-145 233l-31 73v2554 2554h2160 2160v-2575zm1719-537c0-948-4-1795-7-1884l-7-161-44-89c-60-121-162-224-283-283-104-52-171-62-368-54-119 5-157 10-210 30-174 65-286 177-369 372l-31 73v1859 1859h660 660l-1-1722z" />
			<path d="m1479 5651c-204-6-206-6-248-34-128-85-116-265 23-340l41-22h1495c822 0 1526 4 1563 8 56 7 75 15 104 40 115 101 88 272-52 333-37 16-133 18-1380 19-737 1-1433-1-1546-4z" />
			<path d="m1477 4793-217-3-49-48c-48-47-71-95-71-152 1-44 36-104 86-149l48-42 3111 6 42 22c92 50 127 168 78 263-8 15-35 46-61 69l-47 41-1351-2c-743-2-1449-4-1569-5z" />
			<path d="m2815 3931c-87-9-127-38-162-116-17-37-18-95-21-817l-3-776 25-50c14-28 42-64 63-81l38-31h833 833l49 50 50 49v831 832l-21 30c-12 16-40 43-62 59l-40 29-761-2c-419 0-788-4-821-7zm1315-936v-545h-545-545v545 545h545 545v-545z" />
			<path d="m1325 3613c-54-3-76-9-101-28-38-29-84-117-84-160 0-75 48-148 124-187 37-19 55-20 400-16 337 3 364 4 400 23 56 28 94 81 108 147 11 53 10 58-18 114-23 46-39 64-74 84l-45 25-320 1c-176 0-351-1-390-3z" />
			<path d="m1239 2735c-71-44-89-79-89-173 0-61 3-74 31-111 53-75 55-75 479-75l375-1 45 25c35 20 51 38 74 84 28 56 29 61 18 114-14 66-52 119-108 147-36 19-62 20-404 23l-365 3-56-36z" />
			<path d="m1477 1583-217-3-49-48c-48-47-71-95-71-152 1-41 34-103 78-142l42-38h1573 1573l41 30c111 82 104 257-14 331l-38 24h-1350c-742 1-1448 0-1568-2z" />
		</g>
	</symbol>
</svg>
